<svg preserveAspectRatio="xMidYMid meet" viewBox="0 0 2486.000000 2234.000000" height="2234.000000pt" width="2486.000000pt" xmlns="http://www.w3.org/2000/svg" version="1.0">

<g stroke="none" fill="#000000" transform="translate(0.000000,2234.000000) scale(0.100000,-0.100000)">
<path d="M11835 20693 c-137 -8 -251 -15 -252 -16 -4 -5 160 -2423 166 -2428
6 -5 533 20 539 26 3 3 -139 2169 -154 2358 -6 71 -8 77 -28 76 -11 -1 -133
-8 -271 -16z"></path>
<path d="M13545 20648 c-2 -7 -43 -191 -90 -408 -48 -217 -108 -494 -135 -615
-178 -811 -291 -1332 -293 -1344 -2 -11 104 -33 463 -97 626 -112 686 -122
822 -134 256 -24 529 43 712 174 139 99 305 304 380 467 117 258 182 616 158
866 -36 364 -211 628 -517 780 -160 80 -255 103 -935 223 -283 50 -525 93
-538 95 -13 3 -24 0 -27 -7z m701 -538 c297 -55 416 -85 498 -128 199 -104
297 -290 282 -537 -10 -166 -51 -366 -110 -527 -95 -264 -218 -390 -422 -433
-89 -19 -161 -19 -293 1 -109 15 -543 93 -547 97 -2 1 11 63 27 137 72 330
301 1378 306 1403 3 17 12 27 23 27 10 0 116 -18 236 -40z"></path>
<path d="M9380 20344 c-136 -21 -326 -71 -630 -163 -728 -220 -885 -270 -883
-278 1 -4 133 -359 293 -788 160 -429 353 -945 428 -1147 105 -282 140 -367
152 -363 146 39 500 152 500 159 0 9 -37 108 -246 670 -58 153 -103 280 -101
282 2 2 61 20 133 39 203 57 310 52 454 -20 68 -34 253 -159 594 -400 169
-119 313 -218 321 -221 8 -3 141 33 297 81 156 47 291 88 301 91 30 9 -732
572 -865 640 -82 42 -190 81 -275 100 -46 10 -83 21 -83 24 0 3 34 23 75 44
191 100 330 258 375 426 17 62 14 223 -4 295 -21 79 -96 229 -142 285 -94 112
-232 203 -358 235 -91 23 -227 27 -336 9z m70 -444 c109 -21 171 -68 216 -164
67 -145 25 -278 -111 -352 -118 -64 -804 -282 -817 -260 -8 14 -196 516 -200
535 -3 14 309 115 617 201 189 52 214 55 295 40z"></path>
<path d="M16682 19007 c-205 -380 -469 -872 -588 -1091 -118 -220 -211 -402
-207 -406 11 -9 471 -210 480 -210 5 1 112 195 240 433 127 238 392 729 588
1091 195 363 352 663 348 667 -11 10 -466 209 -478 209 -5 0 -178 -312 -383
-693z"></path>
<path d="M5530 18635 c-426 -310 -776 -568 -778 -573 -3 -11 1681 -1887 1696
-1887 9 0 445 315 1505 1088 l87 64 -145 162 c-102 112 -150 159 -159 154 -8
-5 -266 -192 -575 -418 -309 -225 -567 -411 -575 -413 -10 -2 -362 379 -439
474 l-17 23 524 382 525 382 -32 36 c-18 20 -83 93 -146 163 l-113 128 -27
-19 c-14 -11 -251 -184 -526 -385 l-500 -365 -25 28 c-14 16 -98 110 -187 209
l-162 180 562 409 c309 225 562 414 562 420 0 8 -273 323 -280 323 0 0 -349
-254 -775 -565z"></path>
<path d="M19220 18281 c-80 -38 -649 -306 -1265 -595 -616 -290 -1123 -531
-1128 -535 -4 -4 91 -86 211 -183 l219 -176 282 144 283 143 389 -315 c214
-174 391 -319 393 -323 3 -3 -45 -121 -105 -261 -60 -140 -112 -264 -115 -276
-4 -17 29 -48 206 -190 116 -93 214 -170 218 -172 5 -1 24 37 44 85 19 49 245
597 501 1219 257 623 467 1136 467 1142 0 12 -432 362 -446 361 -5 0 -74 -31
-154 -68z m-241 -995 c-100 -234 -185 -426 -188 -426 -10 1 -517 414 -520 423
-1 5 195 105 435 223 240 117 440 216 443 219 24 25 -11 -68 -170 -439z"></path>
<path d="M3456 16893 c-24 -38 -120 -188 -214 -334 l-170 -267 675 -602 c370
-331 672 -604 671 -606 -2 -1 -415 94 -917 212 -503 118 -919 213 -925 211
-19 -7 -418 -639 -409 -647 4 -4 531 -280 1171 -613 l1163 -605 43 66 c166
261 216 340 216 344 0 3 -409 221 -909 484 -500 263 -908 480 -906 482 1 2
469 -114 1040 -258 570 -144 1044 -260 1053 -258 13 3 252 359 252 377 0 4
-348 317 -774 696 -426 380 -773 691 -771 693 1 1 413 -209 916 -468 502 -258
916 -470 919 -469 3 0 63 91 133 201 102 161 125 204 115 213 -7 7 -510 270
-1118 585 -608 315 -1129 585 -1158 601 l-52 29 -44 -67z"></path>
<path d="M12090 16669 c-210 -11 -552 -53 -805 -99 -1645 -296 -3082 -1151
-4039 -2403 -683 -895 -1079 -1990 -1114 -3080 -5 -137 -4 -211 3 -213 6 -1
171 -4 368 -7 l357 -4 0 126 c0 346 67 791 171 1146 97 329 193 543 445 1000
254 460 398 670 680 990 784 890 1921 1518 3144 1736 91 16 176 32 190 35 51
11 2 -13 -120 -60 -385 -149 -835 -405 -1192 -677 -530 -405 -1001 -965 -1282
-1526 -122 -245 -347 -781 -419 -998 -116 -353 -204 -800 -223 -1135 -8 -151
-7 -570 2 -612 l6 -28 702 0 c387 0 705 2 707 4 2 2 1 105 -4 228 -26 784 103
1632 364 2381 187 539 472 1123 682 1401 270 358 595 641 983 859 149 83 510
245 521 233 2 -2 -20 -25 -49 -50 -72 -64 -218 -225 -283 -312 -109 -146 -223
-355 -280 -514 -15 -41 -83 -271 -151 -510 -113 -392 -134 -479 -214 -880 -81
-408 -92 -482 -139 -885 -48 -417 -52 -464 -66 -905 -9 -256 -15 -595 -13
-755 l3 -290 700 0 700 0 3 2908 2 2907 -97 -2 c-54 0 -163 -5 -243 -9z"></path>
<path d="M20475 15572 c-611 -296 -1147 -555 -1192 -577 l-82 -40 120 -200
c67 -110 124 -204 128 -208 7 -6 512 235 1429 681 58 28 101 44 98 36 -3 -7
-230 -365 -506 -794 -275 -430 -500 -786 -500 -791 0 -10 243 -423 260 -442 5
-5 475 217 1046 494 572 276 1107 535 1191 576 l152 73 -125 209 -126 209 -91
-44 c-51 -24 -398 -191 -772 -372 -374 -181 -681 -328 -683 -327 -2 2 213 345
479 762 265 417 496 781 514 808 l31 50 -126 212 c-69 117 -128 214 -131 217
-2 3 -504 -237 -1114 -532z"></path>
<path d="M2980 11439 c-83 -9 -164 -40 -240 -91 -222 -148 -261 -448 -83 -639
97 -105 210 -157 358 -166 237 -14 439 110 511 315 110 313 -182 624 -546 581z"></path>
<path d="M21911 11254 c-330 -88 -445 -462 -214 -693 131 -130 331 -176 509
-116 41 14 92 36 114 50 61 39 128 114 163 185 30 60 32 72 32 165 0 94 -2
105 -34 170 -59 119 -166 204 -302 240 -68 19 -198 18 -268 -1z"></path>
<path d="M12497 10863 c-4 -3 -7 -1313 -7 -2910 l0 -2903 63 0 c34 0 145 5
247 10 557 32 1158 142 1699 312 1427 447 2660 1363 3420 2541 537 833 840
1782 868 2725 l6 222 -344 1 c-189 0 -353 2 -365 4 -20 4 -21 0 -27 -178 -23
-623 -141 -1131 -386 -1666 -86 -186 -353 -664 -478 -855 -719 -1096 -1880
-1894 -3241 -2228 -160 -39 -532 -111 -539 -104 -2 2 61 29 139 61 195 79 433
193 613 294 797 448 1478 1147 1859 1909 111 222 356 805 420 997 110 336 193
750 216 1080 12 163 14 571 4 648 l-7 47 -703 0 c-386 0 -705 -3 -707 -7 -2
-5 0 -105 5 -223 16 -446 -28 -1001 -117 -1465 -119 -621 -339 -1254 -633
-1825 -198 -385 -325 -564 -587 -825 -188 -189 -328 -302 -535 -436 -114 -73
-398 -222 -495 -258 -27 -11 -81 -31 -118 -45 l-69 -27 110 110 c183 183 310
356 415 566 83 166 99 212 238 698 117 410 136 488 218 900 82 414 94 488 140
887 46 396 52 473 66 860 8 234 15 575 15 758 l0 332 -698 0 c-384 0 -702 -3
-705 -7z"></path>
<path d="M21258 8994 c-132 -32 -245 -117 -305 -231 -29 -55 -198 -551 -190
-559 7 -7 1219 -325 1224 -321 11 12 163 502 171 554 13 78 0 166 -32 235 -30
62 -125 159 -202 204 -183 107 -488 162 -666 118z m281 -229 c263 -55 401
-152 401 -281 0 -40 -73 -300 -89 -317 -7 -6 -174 36 -772 194 l-37 9 28 88
c42 130 67 190 96 228 28 36 78 71 122 84 45 14 176 11 251 -5z"></path>
<path d="M3875 8893 c-49 -13 -93 -28 -97 -31 -4 -4 17 -78 47 -165 29 -86 50
-159 46 -161 -3 -2 -226 -63 -496 -136 -269 -73 -495 -135 -501 -139 -10 -5
13 -88 57 -210 4 -10 116 17 508 123 277 76 507 134 512 129 4 -4 29 -73 55
-153 26 -80 50 -149 55 -154 7 -8 174 29 199 44 10 6 -276 881 -288 879 -4 0
-47 -12 -97 -26z"></path>
<path d="M3893 7929 c-221 -29 -458 -148 -558 -282 -85 -112 -115 -261 -81
-397 56 -224 223 -397 432 -446 104 -24 273 -15 384 21 281 90 449 242 491
443 44 213 -101 503 -301 599 -114 55 -249 78 -367 62z m195 -233 c146 -39
242 -152 250 -297 8 -129 -64 -223 -233 -305 -226 -109 -418 -102 -541 20 -67
68 -98 146 -91 232 11 142 115 247 316 318 125 45 214 54 299 32z"></path>
<path d="M20503 7635 c-48 -99 -54 -118 -42 -129 69 -65 953 -828 963 -832 10
-4 70 109 112 211 3 6 -45 51 -106 100 -60 50 -110 93 -110 97 0 5 43 97 95
205 l94 198 159 -2 160 -1 51 110 c28 61 49 113 47 115 -2 3 -130 9 -283 14
-153 4 -422 13 -599 19 -176 5 -358 10 -403 10 l-82 0 -56 -115z m575 -121
c111 -3 202 -8 202 -9 0 -14 -132 -270 -139 -270 -13 0 -341 277 -341 288 0 5
17 6 38 3 20 -3 128 -8 240 -12z"></path>
<path d="M20043 6815 l-242 -364 52 -29 c111 -63 1036 -562 1041 -562 6 0 484
714 492 735 4 9 -24 29 -79 59 -46 25 -89 46 -94 46 -7 0 -273 -388 -364 -532
-4 -6 -68 23 -150 67 -79 43 -145 79 -146 79 -1 1 72 113 162 249 l165 246
-68 37 c-37 20 -77 43 -89 50 -12 8 -25 14 -28 14 -3 0 -78 -109 -166 -242
-89 -134 -163 -244 -164 -246 -5 -6 -235 121 -235 129 0 5 77 124 170 265 94
141 170 260 170 263 0 7 -155 93 -175 98 -5 2 -119 -161 -252 -362z"></path>
<path d="M4497 6332 c-290 -174 -526 -320 -525 -324 4 -11 489 -668 497 -672
9 -6 181 97 178 106 -1 5 -80 113 -174 242 -95 129 -173 238 -173 242 0 5 191
123 423 262 232 139 428 256 436 261 11 7 -1 29 -55 105 -38 52 -71 95 -74 95
-3 0 -242 -143 -533 -317z"></path>
<path d="M5075 5587 c-264 -200 -480 -369 -480 -375 0 -12 602 -662 613 -662
4 0 42 28 85 61 l79 61 -24 27 c-14 14 -116 124 -228 245 -169 181 -201 220
-189 230 8 6 62 47 119 90 58 44 110 83 116 88 8 5 57 -40 145 -134 73 -79
166 -178 206 -221 l74 -78 84 62 84 62 -88 96 c-49 53 -141 152 -205 220 -64
69 -116 127 -116 130 1 3 49 41 107 84 l107 78 21 -23 c12 -13 111 -119 220
-236 109 -117 202 -211 208 -209 14 4 156 111 157 118 0 8 -600 649 -608 649
-5 0 -224 -164 -487 -363z"></path>
<path d="M19327 5870 c-37 -45 -70 -87 -73 -94 -3 -9 165 -131 493 -356 274
-189 503 -343 509 -344 10 -1 539 619 545 639 4 13 -163 127 -171 118 -4 -5
-91 -108 -195 -231 -127 -152 -192 -221 -202 -218 -8 3 -198 132 -423 286
-225 154 -410 280 -412 280 -2 0 -34 -36 -71 -80z"></path>
<path d="M18670 5144 c-184 -50 -382 -215 -445 -374 -11 -27 -19 -82 -22 -140
-4 -82 -1 -105 20 -166 70 -205 295 -413 512 -475 80 -22 246 -18 330 8 162
52 330 193 401 337 38 79 39 82 39 190 -1 91 -5 121 -23 167 -80 201 -303 399
-514 455 -68 18 -227 17 -298 -2z m207 -208 c156 -42 353 -239 383 -383 32
-153 -77 -304 -253 -349 -143 -37 -277 13 -417 155 -174 176 -196 326 -69 466
96 104 228 145 356 111z"></path>
<path d="M5870 4783 c-327 -151 -599 -278 -603 -282 -4 -4 37 -45 92 -90 l100
-81 134 67 135 66 168 -139 c93 -76 177 -146 187 -154 17 -14 15 -21 -38 -137
-30 -67 -55 -127 -55 -132 0 -14 194 -171 202 -163 4 4 106 243 228 532 122
289 231 545 241 569 16 36 17 47 7 56 -26 25 -199 165 -201 164 -1 -1 -270
-125 -597 -276z m410 -224 c-48 -110 -90 -200 -94 -200 -15 0 -245 196 -238
202 9 8 405 199 413 199 4 0 -33 -90 -81 -201z"></path>
<path d="M17640 4414 c-184 -118 -370 -237 -413 -265 l-78 -49 62 -78 c35 -42
64 -78 65 -80 1 -1 66 39 145 89 79 51 151 94 159 96 10 2 117 -127 305 -367
160 -204 295 -378 302 -387 11 -14 21 -11 93 33 44 27 92 58 105 69 l24 20
-305 389 c-168 213 -304 389 -302 391 2 1 40 26 86 54 45 28 114 72 152 96
l70 45 -61 78 c-33 42 -64 78 -67 79 -4 1 -158 -95 -342 -213z"></path>
<path d="M6720 4102 c-201 -256 -365 -469 -365 -474 0 -4 46 -36 103 -72 l102
-65 53 67 c29 37 97 124 151 195 54 70 101 127 105 127 3 -1 33 -20 66 -43 40
-28 68 -57 83 -87 23 -44 24 -49 20 -304 l-3 -258 118 -75 c65 -41 120 -74
122 -72 7 8 25 278 25 386 0 88 -5 127 -20 174 -12 34 -20 63 -18 64 2 2 30
-6 63 -17 80 -27 208 -22 276 11 109 52 191 173 197 291 5 89 -29 154 -120
230 -51 42 -392 266 -573 376 -19 11 -47 -22 -385 -454z m637 52 c188 -122
217 -170 157 -258 -48 -70 -132 -85 -220 -38 -94 50 -293 177 -294 187 0 6 38
58 85 118 80 101 87 107 108 96 12 -7 86 -54 164 -105z"></path>
<path d="M7755 3464 c-163 -278 -295 -507 -293 -509 2 -2 51 -26 109 -53 l107
-50 188 323 c104 178 192 320 195 317 3 -4 18 -176 33 -382 15 -206 30 -398
33 -425 l5 -51 115 -53 c74 -36 117 -51 124 -44 13 13 589 994 589 1003 0 7
-195 100 -210 100 -4 0 -90 -139 -189 -308 -100 -170 -188 -317 -196 -328 -13
-18 -14 -17 -15 16 -1 19 -16 217 -33 440 l-32 405 -105 52 c-58 29 -110 53
-116 53 -7 0 -146 -228 -309 -506z"></path>
<path d="M16040 3579 c-228 -88 -419 -164 -423 -168 -7 -7 473 -1033 492
-1053 5 -5 877 324 889 336 5 6 -82 176 -90 176 -4 0 -146 -54 -316 -119 -169
-66 -313 -121 -320 -123 -12 -3 -148 269 -139 278 2 3 131 54 286 113 156 60
285 112 288 115 9 8 -70 175 -82 176 -5 0 -138 -50 -293 -110 -156 -61 -286
-110 -289 -110 -9 0 -111 225 -105 231 4 4 144 59 312 124 168 65 307 120 310
122 8 7 -80 173 -92 173 -7 -1 -200 -73 -428 -161z"></path>
<path d="M15450 3353 c-68 -19 -126 -36 -128 -38 -2 -2 -11 -204 -20 -449 -9
-245 -19 -446 -22 -445 -4 0 -490 614 -566 715 -10 13 -26 11 -125 -16 -63
-17 -122 -33 -131 -36 -14 -4 67 -111 364 -482 209 -262 388 -485 397 -494 15
-17 23 -16 151 18 74 20 136 37 137 38 1 1 7 85 13 186 48 835 59 1034 57
1036 -1 1 -58 -14 -127 -33z"></path>
<path d="M9651 3222 c-13 -42 -26 -84 -28 -93 -4 -14 24 -24 171 -59 97 -23
178 -46 181 -50 3 -4 -58 -212 -135 -461 -77 -249 -138 -454 -136 -457 7 -6
238 -63 242 -59 2 2 67 208 145 458 78 250 142 455 143 456 1 1 80 -18 176
-43 96 -24 178 -43 183 -41 8 2 68 178 63 184 -2 3 -965 243 -973 243 -5 0
-19 -35 -32 -78z"></path>
<path d="M17092 3009 l-103 -49 32 -58 c30 -53 78 -133 84 -140 2 -2 26 8 54
23 l52 26 15 -38 c19 -44 8 -96 -30 -140 l-24 -27 47 -33 46 -33 23 27 c60 72
84 161 62 229 -17 54 -133 264 -145 263 -5 0 -56 -23 -113 -50z"></path>
<path d="M13875 3015 c-245 -45 -415 -203 -456 -420 -24 -128 5 -324 66 -445
67 -134 186 -237 323 -281 133 -42 320 -36 472 16 277 94 409 329 356 634 -57
326 -275 514 -595 510 -53 -1 -127 -7 -166 -14z m278 -205 c101 -38 170 -117
208 -241 25 -82 35 -211 20 -279 -33 -155 -187 -259 -365 -248 -168 11 -286
122 -331 310 -19 82 -19 201 1 267 25 85 111 166 207 197 67 20 197 17 260 -6z"></path>
<path d="M10961 2985 c-90 -25 -172 -75 -246 -150 -120 -120 -176 -269 -178
-475 0 -95 3 -126 22 -179 60 -172 193 -287 396 -342 119 -33 313 -33 410 -1
124 41 202 95 272 187 87 115 133 262 133 425 -1 114 -11 164 -53 250 -62 127
-201 232 -362 276 -86 23 -323 29 -394 9z m259 -186 c131 -21 212 -76 261
-175 30 -60 33 -74 32 -157 -1 -107 -22 -198 -65 -280 -37 -69 -82 -111 -158
-146 -47 -22 -69 -26 -150 -26 -88 0 -101 3 -162 33 -165 81 -223 245 -164
464 44 165 136 259 279 287 58 12 55 12 127 0z"></path>
<path d="M12458 2893 c-26 -4 -28 -8 -28 -46 1 -105 39 -1099 42 -1103 7 -7
893 19 901 26 4 4 5 48 1 99 l-7 93 -286 -7 c-157 -3 -300 -8 -318 -11 -17 -2
-34 -1 -37 4 -5 8 -36 780 -36 900 l0 52 -102 -1 c-57 -1 -115 -4 -130 -6z"></path>
<path d="M8542 2595 l-51 -103 47 -17 c64 -24 68 -29 43 -63 -27 -39 -78 -62
-136 -62 l-46 0 3 -52 3 -53 53 1 c145 4 212 57 302 236 34 67 57 124 53 128
-4 4 -33 16 -63 27 -30 12 -78 30 -106 41 l-50 20 -52 -103z"></path>
</g>
</svg>
